<?xml version="1.0" encoding="UTF-8" standalone="no"?>
<!-- Created with Inkscape (http://www.inkscape.org/) -->

<svg
   xmlns:dc="http://purl.org/dc/elements/1.1/"
   xmlns:cc="http://creativecommons.org/ns#"
   xmlns:rdf="http://www.w3.org/1999/02/22-rdf-syntax-ns#"
   xmlns:svg="http://www.w3.org/2000/svg"
   xmlns="http://www.w3.org/2000/svg"
   xmlns:sodipodi="http://sodipodi.sourceforge.net/DTD/sodipodi-0.dtd"
   xmlns:inkscape="http://www.inkscape.org/namespaces/inkscape"
   width="744.09448"
   height="1052.3622"
   id="svg2"
   version="1.1"
   inkscape:version="0.48.4 r9939"
   sodipodi:docname="FrontPagePortrait.svg">
  <defs
     id="defs4" />
  <sodipodi:namedview
     id="base"
     pagecolor="#ffffff"
     bordercolor="#666666"
     borderopacity="1.0"
     inkscape:pageopacity="0.0"
     inkscape:pageshadow="2"
     inkscape:zoom="1.979899"
     inkscape:cx="344.10786"
     inkscape:cy="150.7289"
     inkscape:document-units="mm"
     inkscape:current-layer="layer3"
     showgrid="false"
     inkscape:window-width="1680"
     inkscape:window-height="1000"
     inkscape:window-x="0"
     inkscape:window-y="0"
     inkscape:window-maximized="1"
     showguides="false"
     inkscape:guide-bbox="true"
     units="mm"
     inkscape:snap-grids="false"
     inkscape:snap-bbox="true"
     inkscape:snap-bbox-midpoints="true"
     inkscape:snap-global="true"
     inkscape:snap-to-guides="true">
    <sodipodi:guide
       orientation="0,1"
       position="-35.433071,350.7874"
       id="guide3069" />
    <sodipodi:guide
       orientation="0,1"
       position="-35.433071,701.5748"
       id="guide3071" />
    <inkscape:grid
       units="mm"
       empspacing="10"
       visible="true"
       enabled="true"
       snapvisiblegridlinesonly="true"
       type="xygrid"
       id="grid3073" />
    <sodipodi:guide
       orientation="0,1"
       position="-35.433071,526.1811"
       id="guide3079" />
    <sodipodi:guide
       orientation="0,1"
       position="-35.433071,175.3937"
       id="guide3081" />
    <sodipodi:guide
       orientation="0,1"
       position="-35.433071,876.9685"
       id="guide3083" />
    <sodipodi:guide
       orientation="0,1"
       position="-35.433071,789.27165"
       id="guide3085" />
    <sodipodi:guide
       orientation="0,1"
       position="-35.433071,613.87795"
       id="guide3087" />
    <sodipodi:guide
       orientation="0,1"
       position="-35.433071,87.69685"
       id="guide3089" />
  </sodipodi:namedview>
  <metadata
     id="metadata7">
    <rdf:RDF>
      <cc:Work
         rdf:about="">
        <dc:format>image/svg+xml</dc:format>
        <dc:type
           rdf:resource="http://purl.org/dc/dcmitype/StillImage" />
        <dc:title></dc:title>
      </cc:Work>
    </rdf:RDF>
  </metadata>
  <g
     inkscape:groupmode="layer"
     id="layer3"
     inkscape:label="Deckblatt"
     transform="translate(0,-2.5390623e-6)"
     style="display:inline">
    <g
       id="g3055"
       transform="translate(93.781433,248.90889)">
      <text
         sodipodi:linespacing="125%"
         id="text3047"
         y="434.14883"
         x="279.31418"
         style="font-size:16px;font-style:normal;font-variant:normal;font-weight:normal;font-stretch:normal;text-align:center;line-height:125%;letter-spacing:2.13999987px;word-spacing:0px;text-anchor:middle;fill:#000000;fill-opacity:1;stroke:none;font-family:EB Garamond 12 All SC;-inkscape-font-specification:EB Garamond 12 All SC"
         xml:space="preserve"><tspan
           y="434.14883"
           x="280.38419"
           id="tspan3049"
           sodipodi:role="line">baldassare</tspan></text>
      <text
         sodipodi:linespacing="125%"
         id="text3051"
         y="452.66589"
         x="277.94019"
         style="font-size:12px;font-style:normal;font-variant:normal;font-weight:normal;font-stretch:normal;text-align:center;line-height:125%;letter-spacing:5.19000053px;word-spacing:0px;text-anchor:middle;fill:#d40000;fill-opacity:1;stroke:none;font-family:EB Garamond;-inkscape-font-specification:EB Garamond"
         xml:space="preserve"><tspan
           style="font-size:20px;letter-spacing:5.19000053px;fill:#d40000"
           y="452.66589"
           x="280.53519"
           id="tspan3053"
           sodipodi:role="line">GALUPPI</tspan></text>
    </g>
    <text
       xml:space="preserve"
       style="font-size:12px;font-style:normal;font-variant:normal;font-weight:normal;font-stretch:normal;text-align:center;line-height:110.00000238%;letter-spacing:0px;word-spacing:0px;text-anchor:middle;fill:#000000;fill-opacity:1;stroke:none;font-family:EB Garamond;-inkscape-font-specification:EB Garamond"
       x="372.3208"
       y="412.09424"
       id="text3061"
       sodipodi:linespacing="110%"><tspan
         sodipodi:role="line"
         x="372.3208"
         y="412.09424"
         style="font-size:14px;font-style:normal;line-height:110.00000238%;-inkscape-font-specification:EB Garamond"
         id="tspan3013">Te Deu[m] Laudamus</tspan><tspan
         sodipodi:role="line"
         x="372.3208"
         y="427.49423"
         style="font-size:14px;font-style:normal;line-height:110.00000238%;-inkscape-font-specification:EB Garamond"
         id="tspan3017"></tspan><tspan
         sodipodi:role="line"
         x="372.3208"
         y="442.89423"
         style="font-size:14px;font-style:normal;line-height:110.00000238%;-inkscape-font-specification:EB Garamond"
         id="tspan3019">BurG IV/3</tspan></text>
    <text
       xml:space="preserve"
       style="font-size:14px;font-style:normal;font-variant:normal;font-weight:normal;font-stretch:normal;text-align:center;line-height:125%;letter-spacing:1.84000015px;word-spacing:0px;text-anchor:middle;fill:#000000;fill-opacity:1;stroke:none;font-family:EB Garamond 12 All SC;-inkscape-font-specification:EB Garamond 12 All SC"
       x="372.06738"
       y="967.76636"
       id="text3099"
       sodipodi:linespacing="125%"><tspan
         sodipodi:role="line"
         x="372.9874"
         y="967.76636"
         id="tspan3023">organo</tspan></text>
    <text
       sodipodi:linespacing="110%"
       id="text3021"
       y="876.96851"
       x="371.86884"
       style="font-size:12px;font-style:normal;font-variant:normal;font-weight:normal;font-stretch:normal;text-align:center;line-height:110.00000238%;letter-spacing:0px;word-spacing:0px;text-anchor:middle;fill:#000000;fill-opacity:1;stroke:none;font-family:EB Garamond;-inkscape-font-specification:EB Garamond"
       xml:space="preserve"><tspan
         id="tspan3032"
         style="font-size:14px;font-style:normal;line-height:110.00000238%;-inkscape-font-specification:EB Garamond"
         y="876.96851"
         x="371.86884"
         sodipodi:role="line">A, T (Solo), S, A, T, B (Coro), 2 ob, 2 tr, 2 vl, b, org</tspan></text>
    <g
       style="font-size:72px;font-style:normal;font-variant:normal;font-weight:normal;font-stretch:normal;text-align:center;line-height:125%;letter-spacing:0px;word-spacing:0px;text-anchor:middle;fill:none;stroke:#808080;stroke-width:0.62362206;stroke-miterlimit:4;stroke-opacity:1;stroke-dasharray:none;display:inline;font-family:EB Garamond;-inkscape-font-specification:EB Garamond"
       id="text3010"
       transform="translate(77.824996,-341.06328)">
      <path
         d="m 165.14312,589.71782 0,27.936 c 0,2.664 -0.936,4.104 -3.384,5.184 -1.584,0.72 -3.96,1.08 -3.96,2.16 0,0.72 1.584,1.152 2.376,1.224 0.504,0 4.752,-0.432 8.136,-0.432 3.456,0 8.208,0.432 8.712,0.432 0.792,-0.072 2.304,-0.504 2.304,-1.224 0,-1.08 -2.376,-1.44 -3.96,-2.16 -2.448,-1.08 -3.384,-2.52 -3.384,-5.184 l 0,-27.936 c 0,-0.72 0.144,-2.232 0.864,-2.232 l 11.16,0 c 1.008,0 1.944,0.936 2.592,2.016 0.792,1.368 1.872,3.24 2.592,3.24 0.864,0 1.008,-0.576 1.008,-1.656 0,-0.792 -0.144,-3.24 -0.144,-4.968 0,-1.584 0.288,-2.448 0.288,-3.096 0,-0.576 -0.432,-1.296 -1.296,-1.296 -0.864,0 -1.224,0.576 -2.088,1.08 -1.296,0.72 -2.448,1.224 -5.04,1.224 l -25.128,0 c -3.96,0 -5.76,-2.16 -6.84,-2.16 -0.72,0 -1.224,0.864 -1.224,1.8 0,0.72 0.144,2.088 0.144,3.24 0,2.304 -0.36,2.88 -0.36,4.536 0,0.648 0.36,1.656 1.296,1.656 1.008,0 1.512,-2.016 2.304,-3.456 0.72,-1.296 1.224,-2.16 3.096,-2.16 l 8.784,0 c 0.72,0 1.152,0.792 1.152,2.232"
         style="fill:none;stroke:#808080;stroke-width:0.62362206;stroke-miterlimit:4;stroke-opacity:1;stroke-dasharray:none"
         id="path3015"
         inkscape:connector-curvature="0" />
      <path
         d="m 204.22449,600.44582 0,-12.096 c 0,-0.936 0.28801,-1.512 2.232,-1.512 l 8.568,0 c 3.456,0 5.256,1.152 5.832,2.376 0.648,1.44 1.72801,2.736 2.592,2.736 0.864,0 1.152,-1.008 1.152,-1.872 0,-0.792 -0.36,-4.752 -0.648,-5.904 -0.144,-0.648 -0.72,-1.008 -1.872,-1.008 -1.29599,0 -5.544,0.36 -8.568,0.36 l -20.664,0 c -1.51199,0 -2.52,0.432 -2.52,1.296 0,0.648 0.50401,1.008 1.152,1.224 4.104,1.152 5.904,1.224 5.904,5.328 l 0,26.28 c 0,2.664 -0.936,4.104 -3.384,5.184 -1.58399,0.72 -3.96,1.08 -3.96,2.16 0,0.72 1.58401,1.152 2.376,1.224 0.504,0 4.75201,-0.36 8.136,-0.36 7.632,0 20.66401,0.36 23.328,0.36 1.224,0 1.368,-0.288 1.944,-1.368 0.576,-0.936 2.736,-6.264 2.736,-8.28 0,-1.08 -0.288,-1.8 -1.008,-1.8 -0.64799,0 -1.584,0.576 -1.944,1.368 -2.08799,4.392 -3.024,6.696 -8.568,6.696 l -10.08,0 c -2.08799,0 -2.736,-0.936 -2.736,-2.808 l 0,-12.096 c 0,-1.368 0.36001,-1.728 1.728,-1.728 l 7.56,0 c 1.512,0 2.016,0.72 2.52,1.512 0.432,0.72 1.36801,2.736 2.304,2.736 0.72,0 0.936,-1.152 0.936,-1.872 0,-0.792 -0.072,-3.024 -0.072,-4.104 0,-1.08 0.288,-3.6 0.288,-4.176 0,-0.864 -0.144,-1.44 -0.792,-1.44 -0.79199,0 -1.44,1.08 -2.232,1.8 -1.29599,1.224 -2.088,2.016 -4.392,2.016 l -6.192,0 c -1.00799,0 -1.656,-0.504 -1.656,-2.232"
         style="fill:none;stroke:#808080;stroke-width:0.62362206;stroke-miterlimit:4;stroke-opacity:1;stroke-dasharray:none"
         id="path3017"
         inkscape:connector-curvature="0" />
      <path
         d="m 260.05262,588.56582 c 0,-1.584 3.168,-2.304 6.264,-2.304 10.22399,0 18.36,7.77601 18.36,18.288 0,9.14399 -4.53601,18.792 -13.104,18.792 -9.64799,0 -11.52,-1.296 -11.52,-6.12 l 0,-28.656 m 8.64,-5.544 c -4.464,0 -9.79201,0.576 -14.256,0.576 -2.16,0 -3.528,-0.072 -5.76,-0.072 -1.512,0 -2.52,0.432 -2.52,1.296 0,0.648 0.504,1.008 1.152,1.224 4.104,1.224 5.904,1.224 5.904,5.328 l 0,26.28 c 0,2.664 -1.008,4.104 -3.384,5.184 -1.584,0.72 -3.96,1.08 -3.96,2.16 0,0.792 1.584,1.152 2.376,1.224 0.504,0 4.752,-0.432 8.064,-0.432 3.312,0 7.12801,0.792 13.968,0.792 15.47998,0 22.464,-11.01601 22.464,-23.472 0,-12.23999 -11.95201,-20.088 -24.048,-20.088"
         style="fill:none;stroke:#808080;stroke-width:0.62362206;stroke-miterlimit:4;stroke-opacity:1;stroke-dasharray:none"
         id="path3019"
         inkscape:connector-curvature="0" />
      <path
         d="m 311.66199,600.44582 0,-12.096 c 0,-0.936 0.28801,-1.512 2.232,-1.512 l 8.568,0 c 3.456,0 5.256,1.152 5.832,2.376 0.648,1.44 1.72801,2.736 2.592,2.736 0.864,0 1.152,-1.008 1.152,-1.872 0,-0.792 -0.36,-4.752 -0.648,-5.904 -0.144,-0.648 -0.72,-1.008 -1.872,-1.008 -1.29599,0 -5.544,0.36 -8.568,0.36 l -20.664,0 c -1.51199,0 -2.52,0.432 -2.52,1.296 0,0.648 0.50401,1.008 1.152,1.224 4.104,1.152 5.904,1.224 5.904,5.328 l 0,26.28 c 0,2.664 -0.936,4.104 -3.384,5.184 -1.58399,0.72 -3.96,1.08 -3.96,2.16 0,0.72 1.58401,1.152 2.376,1.224 0.504,0 4.75201,-0.36 8.136,-0.36 7.632,0 20.66401,0.36 23.328,0.36 1.224,0 1.368,-0.288 1.944,-1.368 0.576,-0.936 2.736,-6.264 2.736,-8.28 0,-1.08 -0.288,-1.8 -1.008,-1.8 -0.64799,0 -1.584,0.576 -1.944,1.368 -2.08799,4.392 -3.024,6.696 -8.568,6.696 l -10.08,0 c -2.08799,0 -2.736,-0.936 -2.736,-2.808 l 0,-12.096 c 0,-1.368 0.36001,-1.728 1.728,-1.728 l 7.56,0 c 1.512,0 2.016,0.72 2.52,1.512 0.432,0.72 1.36801,2.736 2.304,2.736 0.72,0 0.936,-1.152 0.936,-1.872 0,-0.792 -0.072,-3.024 -0.072,-4.104 0,-1.08 0.288,-3.6 0.288,-4.176 0,-0.864 -0.144,-1.44 -0.792,-1.44 -0.79199,0 -1.44,1.08 -2.232,1.8 -1.29599,1.224 -2.088,2.016 -4.392,2.016 l -6.192,0 c -1.00799,0 -1.656,-0.504 -1.656,-2.232"
         style="fill:none;stroke:#808080;stroke-width:0.62362206;stroke-miterlimit:4;stroke-opacity:1;stroke-dasharray:none"
         id="path3021"
         inkscape:connector-curvature="0" />
      <path
         d="m 377.27987,590.65382 c 0,-2.808 0.648,-3.528 3.96,-4.608 0.648,-0.216 1.224,-0.576 1.224,-1.224 0,-0.864 -1.44,-1.296 -2.52,-1.296 -1.08,0 -3.528,0.36 -4.608,0.36 -1.08,0 -3.6,-0.36 -4.68,-0.36 -1.08,0 -2.52,0.432 -2.52,1.296 0,0.648 0.576,1.08 1.224,1.296 3.024,1.008 3.816,0.936 3.816,4.68 l 0,13.392 c 0,11.23199 -2.44801,18.72 -12.312,18.72 -8.78399,0 -10.872,-5.76001 -10.872,-17.28 l 0,-14.4 c 0,-2.88 1.728,-4.176 4.824,-5.184 0.648,-0.216 1.08,-0.576 1.08,-1.224 0,-0.864 -1.44,-1.296 -2.52,-1.296 -2.448,0 -5.688,0.36 -8.208,0.36 -2.592,0 -2.88,-0.36 -5.688,-0.36 -1.08,0 -2.52,0.432 -2.52,1.296 0,0.648 0.504,1.008 1.152,1.224 4.53599,1.512 5.04,1.872 5.04,5.328 l 0,16.848 c 0,11.01599 3.31201,18.288 16.2,18.288 10.58399,0 17.928,-7.27201 17.928,-18.432 l 0,-17.424"
         style="fill:none;stroke:#808080;stroke-width:0.62362206;stroke-miterlimit:4;stroke-opacity:1;stroke-dasharray:none"
         id="path3023"
         inkscape:connector-curvature="0" />
      <path
         d="m 432.58937,616.78982 -1.224,-23.76 c -0.216,-4.104 0.576,-5.544 2.808,-6.48 2.88,-1.224 3.456,-1.44 3.456,-2.16 0,-0.72 -0.288,-1.224 -1.152,-1.224 -2.304,0 -7.272,0.72 -9.144,0.72 -1.872,0 -2.88,0 -3.672,1.656 l -11.304,23.472 c -1.368,2.736 -1.656,1.584 -2.232,0.072 l -8.424,-20.664 c -1.368,-3.24 -2.592,-4.536 -4.536,-4.536 -3.312,0 -5.4,-0.36 -7.992,-0.36 -0.864,0 -2.448,-0.072 -2.448,1.008 0,1.152 2.592,2.232 3.888,3.456 1.8,1.656 2.952,3.024 2.304,8.136 l -2.448,19.152 c -0.504,3.6 -1.728,6.48 -4.176,7.56 -1.656,0.72 -3.96,1.08 -3.96,2.16 0,0.72 1.584,1.152 2.376,1.224 0.504,0 3.24,-0.432 6.624,-0.432 3.456,0 6.624,0.432 7.128,0.432 0.792,-0.072 2.304,-0.504 2.304,-1.224 0,-1.08 -2.376,-1.44 -3.96,-2.16 -1.872,-0.864 -2.376,-4.392 -2.232,-6.336 l 1.224,-20.088 c 0.072,-1.8 0.72,-2.808 1.8,-0.072 l 8.856,22.68 c 1.512,3.888 2.088,4.464 2.808,4.464 0.648,0 3.672,-6.192 3.96,-6.84 l 9.72,-22.32 c 0.504,-1.296 1.8,-1.584 1.872,-0.216 l 0.936,22.68 c 0.144,2.664 -0.936,4.968 -3.384,6.048 -1.584,0.72 -3.96,1.08 -3.96,2.16 0,0.72 1.584,1.152 2.376,1.224 0.504,0 4.752,-0.432 8.136,-0.432 3.456,0 8.208,0.432 8.712,0.432 0.792,-0.072 2.304,-0.504 2.304,-1.224 0,-1.08 -2.376,-1.44 -3.96,-2.16 -2.448,-1.08 -3.24,-3.384 -3.384,-6.048"
         style="fill:none;stroke:#808080;stroke-width:0.62362206;stroke-miterlimit:4;stroke-opacity:1;stroke-dasharray:none"
         id="path3025"
         inkscape:connector-curvature="0" />
    </g>
  </g>
</svg>
